Coordinates
version=1
nRows=16
nColumns=22
inDegrees=yes

Units are S.I. units (second, meters, Newtons, ...)
If the header above contains a line with 'inDegrees', this indicates whether rotational values are in degrees (yes) or radians (no).

endheader
time	pelvis_tilt	pelvis_list	pelvis_rotation	pelvis_tx	pelvis_ty	pelvis_tz	hip_flexion_r	hip_adduction_r	hip_rotation_r	knee_angle_r	ankle_angle_r	subtalar_angle_r	hip_flexion_l	hip_adduction_l	hip_rotation_l	knee_angle_l	ankle_angle_l	subtalar_angle_l	lumbar_extension	lumbar_bending	lumbar_rotation
      0.01000000	     -0.72583332	     -2.65188853	     -6.14785466	     -1.33782968	      1.01382694	      0.64651125	     13.88952465	      1.48954945	     -5.00924821	    -33.61185096	     14.76932579	      4.02322774	      5.36581120	      1.04328970	     -9.55782534	    -17.80101617	     15.69101466	     -7.83976090	    -12.80369198	      1.63555433	      2.43916690
      0.02000000	     -0.69454468	     -2.65019728	     -6.14836465	     -1.33685686	      1.01383655	      0.64619175	     14.24905683	      1.41700819	     -4.97821352	    -34.26628888	     14.91146658	      3.99825744	      5.23230093	      1.06991746	     -9.62093456	    -17.72210231	     15.74325893	     -7.82074491	    -12.92588641	      1.63655667	      2.37772685
      0.03000000	     -0.68688301	     -2.62394992	     -6.15550226	     -1.33571158	      1.01380734	      0.64582281	     14.71156015	      1.30771222	     -4.93131530	    -35.01078452	     15.07142648	      3.97046923	      5.10167172	      1.12689073	     -9.68771189	    -17.61676378	     15.76355689	     -7.77254318	    -13.03233809	      1.61404674	      2.31195029
      0.04000000	     -0.71724546	     -2.59575627	     -6.16214455	     -1.33444571	      1.01372563	      0.64542865	     15.26594380	      1.19028501	     -4.88559983	    -35.78895450	     15.22128056	      3.92999464	      4.99915629	      1.18384654	     -9.75555364	    -17.50197237	     15.75100583	     -7.68705965	    -13.10891042	      1.59354170	      2.26119811
      0.05000000	     -0.70799321	     -2.57204802	     -6.15630678	     -1.33302493	      1.01372246	      0.64500967	     15.79155150	      1.06372111	     -4.84837763	    -36.53645758	     15.33810996	      3.86222148	      4.82437118	      1.24453503	     -9.82371997	    -17.34970949	     15.79723723	     -7.62259527	    -13.23539961	      1.57900087	      2.16025021
      0.06000000	     -0.72360200	     -2.54486767	     -6.14828972	     -1.33150061	      1.01370006	      0.64458294	     16.35679168	      0.92431798	     -4.83848702	    -37.24252173	     15.42170043	      3.74964282	      4.65740588	      1.31009593	     -9.88452219	    -17.17334606	     15.80234411	     -7.54281054	    -13.33371175	      1.56649673	      2.07129983
      0.07000000	     -0.77117917	     -2.52546092	     -6.12880445	     -1.32985873	      1.01365354	      0.64415848	     16.94523071	      0.78670637	     -4.86220463	    -37.86714527	     15.47345697	      3.56032968	      4.50317067	      1.36628901	     -9.93720683	    -16.96906131	     15.78136339	     -7.44531400	    -13.38567205	      1.57135962	      1.97234710
      0.08000000	     -0.80161670	     -2.51541737	     -6.09759888	     -1.32815245	      1.01365560	      0.64373141	     17.50027657	      0.64960237	     -4.90444739	    -38.39505294	     15.46040348	      3.34588177	      4.32154738	      1.41808771	     -9.96452960	    -16.75773567	     15.78285193	     -7.36689885	    -13.46294685	      1.58962830	      1.85994544
      0.09000000	     -0.84375078	     -2.51931222	     -6.05788119	     -1.32636321	      1.01367041	      0.64333279	     18.04706364	      0.52294871	     -4.96503895	    -38.81557978	     15.39366897	      3.09691876	      4.13924976	      1.45393650	     -9.97770193	    -16.53265936	     15.77582641	     -7.29610541	    -13.52292147	      1.62549741	      1.74388920
      0.10000000	     -0.89300790	     -2.54544198	     -6.01639410	     -1.32451223	      1.01370401	      0.64295731	     18.58439146	      0.41718894	     -5.02472510	    -39.12705731	     15.25110682	      2.86215751	      3.95622958	      1.46635505	     -9.97796465	    -16.30400437	     15.78022129	     -7.23869926	    -13.57609659	      1.69149325	      1.63550524
      0.11000000	     -0.95602728	     -2.59850339	     -5.97521025	     -1.32261811	      1.01376068	      0.64263368	     19.12675079	      0.34399029	     -5.05850332	    -39.33258922	     15.01741510	      2.69371675	      3.78038070	      1.44617768	     -9.97493356	    -16.07114622	     15.77154700	     -7.19405203	    -13.61793553	      1.78725120	      1.53291011
      0.12000000	     -1.00387284	     -2.68875026	     -5.94808549	     -1.32069810	      1.01389353	      0.64237078	     19.65558459	      0.31611003	     -5.03342345	    -39.44189749	     14.66768003	      2.65175968	      3.57546437	      1.38815749	     -9.95651699	    -15.82765876	     15.79374551	     -7.16761915	    -13.69117770	      1.92020471	      1.46456614
      0.13000000	     -1.09634535	     -2.81619155	     -5.92678513	     -1.31879999	      1.01401830	      0.64217180	     20.25461353	      0.34197547	     -4.93636744	    -39.47274773	     14.14360407	      2.63336354	      3.42730263	      1.27894616	     -9.94234895	    -15.60695119	     15.79431435	     -7.13727735	    -13.72893003	      2.09771918	      1.41363743
      0.14000000	     -1.30124479	     -2.99761144	     -5.93866093	     -1.31695328	      1.01401968	      0.64209452	     21.01190354	      0.46328084	     -4.71706022	    -39.43897103	     13.43891084	      2.67038764	      3.42704258	      1.08311142	     -9.98808144	    -15.45077887	     15.85406163	     -7.09116248	    -13.65507194	      2.34244936	      1.39267146
      0.15000000	     -1.48672464	     -3.22924457	     -5.97179952	     -1.31513872	      1.01413789	      0.64209895	     21.78202061	      0.65658578	     -4.37931183	    -39.33415115	     12.48873874	      2.84741231	      3.40120786	      0.83257068	    -10.02314793	    -15.29730764	     15.89826669	     -7.05469212	    -13.63295247	      2.63427563	      1.42208078
      0.16000000	     -1.70862482	     -3.50490914	     -6.03075034	     -1.31335730	      1.01424845	      0.64220767	     22.61624501	      0.92997457	     -3.92067425	    -39.15676287	     11.34063573	      3.12477128	      3.42734384	      0.52060925	    -10.08040756	    -15.17992064	     15.96156244	     -7.01823478	    -13.59294376	      2.97178956	      1.49137592
